<?xml version="1.0" encoding="UTF-8" standalone="no"?>
<!-- Created with Inkscape (http://www.inkscape.org/) -->

<svg
   xmlns:dc="http://purl.org/dc/elements/1.1/"
   xmlns:cc="http://creativecommons.org/ns#"
   xmlns:rdf="http://www.w3.org/1999/02/22-rdf-syntax-ns#"
   xmlns:svg="http://www.w3.org/2000/svg"
   xmlns="http://www.w3.org/2000/svg"
   xmlns:sodipodi="http://sodipodi.sourceforge.net/DTD/sodipodi-0.dtd"
   xmlns:inkscape="http://www.inkscape.org/namespaces/inkscape"
   width="1468.7617"
   height="1076.8226"
   id="svg2"
   version="1.1"
   inkscape:version="0.92.2 (5c3e80d, 2017-08-06)"
   sodipodi:docname="enemy plane.svg"
   inkscape:export-filename="C:\Users\Eric\Documents\Foreign Aid Fighter\Assets\Models\enemyplane.png"
   inkscape:export-xdpi="13.186707"
   inkscape:export-ydpi="13.186707">
  <defs
     id="defs4" />
  <sodipodi:namedview
     id="base"
     pagecolor="#ffffff"
     bordercolor="#666666"
     borderopacity="1.0"
     inkscape:pageopacity="0.0"
     inkscape:pageshadow="2"
     inkscape:zoom="0.49497476"
     inkscape:cx="836.47814"
     inkscape:cy="420.54374"
     inkscape:document-units="px"
     inkscape:current-layer="layer1"
     showgrid="false"
     showborder="false"
     fit-margin-top="0"
     fit-margin-left="0"
     fit-margin-right="0"
     fit-margin-bottom="0"
     inkscape:window-width="1920"
     inkscape:window-height="1001"
     inkscape:window-x="-9"
     inkscape:window-y="136"
     inkscape:window-maximized="1" />
  <metadata
     id="metadata7">
    <rdf:RDF>
      <cc:Work
         rdf:about="">
        <dc:format>image/svg+xml</dc:format>
        <dc:type
           rdf:resource="http://purl.org/dc/dcmitype/StillImage" />
        <dc:title />
      </cc:Work>
    </rdf:RDF>
  </metadata>
  <g
     inkscape:label="Layer 1"
     inkscape:groupmode="layer"
     id="layer1"
     transform="translate(863.17651,76.392306)">
    <g
       id="g13347"
       transform="rotate(-90,-867.32328,227.04874)"
       inkscape:export-filename="C:\Users\Eric\Documents\Foreign Aid Fighter\Assets\Models\enemyplane.png"
       inkscape:export-xdpi="44.268353"
       inkscape:export-ydpi="44.268353">
      <path
         d="m -1743.4044,1164.3764 75.564,-86.8229"
         style="fill:none;stroke:#000000;stroke-width:0.69999999;stroke-linecap:round;stroke-linejoin:round;stroke-miterlimit:4;stroke-dasharray:none;stroke-opacity:1"
         id="733-8"
         inkscape:connector-curvature="0"
         inkscape:export-filename="C:\Users\Eric\Documents\Foreign Aid Fighter\Assets\Models\enemyplane.png"
         inkscape:export-xdpi="44.268353"
         inkscape:export-ydpi="44.268353" />
      <path
         d="m -1667.8404,1077.5535 16.7921,-26.379"
         style="fill:none;stroke:#000000;stroke-width:0.69999999;stroke-linecap:round;stroke-linejoin:round;stroke-miterlimit:4;stroke-dasharray:none;stroke-opacity:1"
         id="734-9"
         inkscape:connector-curvature="0"
         inkscape:export-filename="C:\Users\Eric\Documents\Foreign Aid Fighter\Assets\Models\enemyplane.png"
         inkscape:export-xdpi="44.268353"
         inkscape:export-ydpi="44.268353" />
      <path
         d="m -1651.0483,1051.1745 -12.096,-11.3866"
         style="fill:none;stroke:#000000;stroke-width:0.69999999;stroke-linecap:round;stroke-linejoin:round;stroke-miterlimit:4;stroke-dasharray:none;stroke-opacity:1"
         id="735-3"
         inkscape:connector-curvature="0"
         inkscape:export-filename="C:\Users\Eric\Documents\Foreign Aid Fighter\Assets\Models\enemyplane.png"
         inkscape:export-xdpi="44.268353"
         inkscape:export-ydpi="44.268353" />
      <path
         d="m -1744.1194,745.47423 75.564,86.8228"
         style="fill:none;stroke:#000000;stroke-width:0.69999999;stroke-linecap:round;stroke-linejoin:round;stroke-miterlimit:4;stroke-dasharray:none;stroke-opacity:1"
         id="733-6"
         inkscape:connector-curvature="0"
         inkscape:export-filename="C:\Users\Eric\Documents\Foreign Aid Fighter\Assets\Models\enemyplane.png"
         inkscape:export-xdpi="44.268353"
         inkscape:export-ydpi="44.268353" />
      <path
         d="m -1668.5554,832.29703 16.7921,26.379"
         style="fill:none;stroke:#000000;stroke-width:0.69999999;stroke-linecap:round;stroke-linejoin:round;stroke-miterlimit:4;stroke-dasharray:none;stroke-opacity:1"
         id="734-7"
         inkscape:connector-curvature="0"
         inkscape:export-filename="C:\Users\Eric\Documents\Foreign Aid Fighter\Assets\Models\enemyplane.png"
         inkscape:export-xdpi="44.268353"
         inkscape:export-ydpi="44.268353" />
      <path
         d="m -1651.7633,858.67603 -12.096,11.3866"
         style="fill:none;stroke:#000000;stroke-width:0.69999999;stroke-linecap:round;stroke-linejoin:round;stroke-miterlimit:4;stroke-dasharray:none;stroke-opacity:1"
         id="735-7"
         inkscape:connector-curvature="0"
         inkscape:export-filename="C:\Users\Eric\Documents\Foreign Aid Fighter\Assets\Models\enemyplane.png"
         inkscape:export-xdpi="44.268353"
         inkscape:export-ydpi="44.268353" />
      <path
         style="fill:none;stroke:#000000;stroke-width:1px;stroke-linecap:butt;stroke-linejoin:miter;stroke-opacity:1"
         d="m -1663.8593,870.06263 -12.0578,13.15186"
         id="path4258"
         inkscape:connector-curvature="0"
         inkscape:export-filename="C:\Users\Eric\Documents\Foreign Aid Fighter\Assets\Models\enemyplane.png"
         inkscape:export-xdpi="44.268353"
         inkscape:export-ydpi="44.268353" />
      <path
         style="fill:none;stroke:#000000;stroke-width:1px;stroke-linecap:butt;stroke-linejoin:miter;stroke-opacity:1"
         d="m -1663.1443,1039.7879 -12.7728,-14.0818"
         id="path4260"
         inkscape:connector-curvature="0"
         inkscape:export-filename="C:\Users\Eric\Documents\Foreign Aid Fighter\Assets\Models\enemyplane.png"
         inkscape:export-xdpi="44.268353"
         inkscape:export-ydpi="44.268353" />
      <ellipse
         style="opacity:1;fill:#0000ff;fill-opacity:1;stroke:none;stroke-width:4.35779524;stroke-miterlimit:4;stroke-dasharray:none;stroke-opacity:1"
         id="path4262"
         cx="-843.69092"
         cy="954.71149"
         rx="54.635418"
         ry="14.78045"
         inkscape:export-filename="C:\Users\Eric\Documents\Foreign Aid Fighter\Assets\Models\enemyplane.png"
         inkscape:export-xdpi="44.268353"
         inkscape:export-ydpi="44.268353" />
      <path
         style="opacity:1;fill:#cccccc;fill-opacity:1;stroke:none;stroke-width:6.22542191;stroke-miterlimit:4;stroke-dasharray:none;stroke-opacity:1"
         d="m 375.23338,1005.6103 c 0.40316,-1.7678 11.38846,-62.67856 24.41177,-135.35713 13.02332,-72.67857 24.02539,-133.58929 24.44906,-135.35714 l 0.77033,-3.21429 -23.36916,0.0273 -23.36916,0.0273 -84.48774,71.25629 -84.48773,71.2563 -6.12729,-6.24326 c -5.67048,-5.77784 -5.95999,-6.43269 -3.88318,-8.7836 42.33785,-47.92584 74.84444,-86.75119 81.51917,-97.36516 l 8.24752,-13.11498 -12.27032,-12.40919 -12.27032,-12.40918 1.00935,-33.00296 1.00935,-33.00296 -6.98655,-2.94093 -6.98654,-2.94093 6.99772,-3.07425 6.99773,-3.07426 -1.0111,-32.63253 -1.01109,-32.63251 11.60164,-12.25634 c 10.24935,-10.82773 11.41823,-12.59906 10.02807,-15.1966 -6.96774,-13.01935 -20.27658,-29.98883 -52.75608,-67.26683 l -37.66798,-43.23302 6.98197,-6.07211 c 5.59091,-4.86232 7.39479,-5.74343 9.05393,-4.42241 1.13958,0.90734 39.28744,32.98899 84.77302,71.29257 l 82.70105,69.64285 h 21.92839 c 12.06061,0 22.231,-0.48961 22.60084,-1.08804 0.36984,-0.59841 -10.50661,-63.11627 -24.16991,-138.92857 -13.66329,-75.81229 -24.85653,-138.00124 -24.87385,-138.19767 -0.0173,-0.19643 39.66493,-0.20819 88.18279,-0.0261 48.51786,0.18206 72.25378,0.51483 52.7465,0.73949 -23.57919,0.27155 -35.30301,0.90282 -34.97619,1.88329 0.27039,0.81116 22.0166,27.14008 48.32493,58.5087 l 47.83333,57.03387 23.57143,0.20655 c 12.96428,0.1136 25.5,0.6411 27.85714,1.1722 l 4.28572,0.96564 -5.71429,0.99247 c -3.14286,0.54586 -14.55357,0.99955 -25.35714,1.00819 -10.80357,0.009 -19.64286,0.32962 -19.64286,0.71327 0,0.38365 28.87861,34.04089 64.1747,74.79386 l 64.1747,74.09631 20.46816,0.98042 c 11.25748,0.53921 36.21815,1.87454 55.46815,2.96738 19.25,1.09284 62.08586,3.43699 95.1908,5.2092 l 60.1908,3.2222 0.95462,15.80226 c 0.52504,8.69124 1.29638,17.79607 1.7141,20.23294 l 0.75948,4.4307 83.09514,0.85663 c 80.307,0.8279 84.3174,0.9999 119.5236,5.12618 20.0357,2.34825 40.8497,4.97649 46.2532,5.84055 8.6466,1.38264 70.208,21.18737 69.1495,22.24587 -0.2247,0.22478 -11.6171,3.39564 -25.3163,7.04636 -13.6991,3.65071 -26.0094,7.22732 -27.3561,7.94804 -3.2927,1.76224 -22.7375,4.76223 -60.5874,9.34757 -29.582,3.58373 -36.4837,3.8647 -117.4674,4.78237 -47.32127,0.53623 -86.49295,1.42919 -87.04812,1.98437 -0.55517,0.55517 -1.60813,9.5163 -2.33989,19.91362 -0.73177,10.39731 -1.49101,19.08513 -1.68723,19.30627 -0.32757,0.36917 -31.18405,2.14796 -178.49934,10.28988 -29.01593,1.60369 -52.90126,3.06833 -53.0785,3.25478 -6.43578,6.77004 -127.70128,147.82077 -127.71566,148.55327 -0.0114,0.58928 10.10399,1.08127 22.47899,1.0933 12.375,0.0114 23.46429,0.64504 24.64286,1.4067 1.42588,0.92147 -6.79129,1.39214 -24.55906,1.4067 l -26.70191,0.0219 -48.65523,57.8409 c -26.76037,31.8125 -48.65523,58.14714 -48.65523,58.52144 0,0.3743 6.58929,0.8889 14.64286,1.1436 8.05357,0.2546 -15.74439,0.5985 -52.88436,0.7642 l -67.52721,0.3013 z M 1123.384,665.29284 c 35.4554,-6.18291 35.5145,-19.86811 0.1124,-26.03209 -17.9482,-3.12502 -54.6483,-1.9236 -67.513,2.21012 -11.749,3.77524 -15.7143,6.55776 -15.7143,11.02716 0,5.68381 11.5869,10.82571 31.4286,13.94707 9.2723,1.45864 40.7367,0.7572 51.6863,-1.15226 z"
         id="path4264"
         inkscape:connector-curvature="0"
         transform="translate(-1938.6547,302.40257)"
         inkscape:export-filename="C:\Users\Eric\Documents\Foreign Aid Fighter\Assets\Models\enemyplane.png"
         inkscape:export-xdpi="44.268353"
         inkscape:export-ydpi="44.268353" />
      <path
         style="opacity:1;fill:#4d4d4d;fill-opacity:1;stroke:none;stroke-width:6.22542191;stroke-miterlimit:4;stroke-dasharray:none;stroke-opacity:1"
         d="m 189.10169,854.95357 -5.95026,-5.41469 28.91597,-56.16637 28.91597,-56.16637 10.64233,-6.1418 10.64233,-6.1418 11.78366,12.27073 11.78367,12.27073 -7.84985,12.44076 c -5.90986,9.36618 -64.78668,79.4458 -81.17471,96.62024 -1.423,1.49129 -2.89505,0.80933 -7.70911,-3.57143 z"
         id="path4266"
         inkscape:connector-curvature="0"
         transform="translate(-1938.6547,302.40257)"
         inkscape:export-filename="C:\Users\Eric\Documents\Foreign Aid Fighter\Assets\Models\enemyplane.png"
         inkscape:export-xdpi="44.268353"
         inkscape:export-ydpi="44.268353" />
      <path
         style="opacity:1;fill:#4d4d4d;fill-opacity:1;stroke:none;stroke-width:6.22542191;stroke-miterlimit:4;stroke-dasharray:none;stroke-opacity:1"
         d="m 251.69765,573.07452 c -5.10714,-3.10706 -10.40998,-7.18832 -11.78409,-9.06947 -1.3741,-1.88116 -14.60411,-27.25684 -29.40002,-56.39042 l -26.90164,-52.97014 5.29503,-5.17046 5.29504,-5.17047 36.96212,42.41548 c 31.25886,35.87075 53.3907,64.44057 53.3907,68.92161 0,1.20769 -21.77524,23.21578 -22.88874,23.13351 -0.37548,-0.0278 -4.86125,-2.59258 -9.9684,-5.69964 z"
         id="path4268"
         inkscape:connector-curvature="0"
         transform="translate(-1938.6547,302.40257)"
         inkscape:export-filename="C:\Users\Eric\Documents\Foreign Aid Fighter\Assets\Models\enemyplane.png"
         inkscape:export-xdpi="44.268353"
         inkscape:export-ydpi="44.268353" />
    </g>
    <path
       style="fill:none;stroke:#000000;stroke-width:10;stroke-linecap:butt;stroke-linejoin:miter;stroke-opacity:1;fill-opacity:1;stroke-miterlimit:4;stroke-dasharray:none"
       d="m -141.42783,1047.0213 c 0,0 5.86768,-11.7165 6.29468,-14.1357 0.427,-2.4192 64.95112,1.4706 64.95112,1.4706 l 12.99971,22.3893 14.99238,8.2537 98.63649,50.1862 25.66727,-27.4648 -143.17748,-169.97161 0.41792,-43.8183 277.50099,49.9491 4e-4,-186.37239 c 0,0 -1.4513,-31.60537 -2.2089,-8.87694 -0.7577,22.72843 -1.5869,87.09738 -1.5869,87.09738 L 98.38723,719.29233 v -44.06718 c 0,0 -1.99249,-16.83944 -2.98881,-14.70487 -0.99632,2.13457 -3.03661,14.70487 -3.03661,14.70487 v 38.99162 l -147.40914,-127.60034 -12.6676,-231.8152 -40.61224,-3.03584 -1.04377,-158.19599 c 0,0 -10.34284,-103.6079 -13.87838,-107.1434 -3.53553,-3.5356 -13.73414,-54.4205 -16.43847,-54.4205"
       id="path4178"
       inkscape:connector-curvature="0"
       inkscape:export-filename="C:\Users\Eric\Documents\Foreign Aid Fighter\Assets\Models\enemyplane.png"
       inkscape:export-xdpi="44.268353"
       inkscape:export-ydpi="44.268353" />
    <path
       style="fill:none;stroke:#000000;stroke-width:10;stroke-linecap:butt;stroke-linejoin:miter;stroke-opacity:1;stroke-miterlimit:4;stroke-dasharray:none"
       d="m -139.11908,1049.4114 c 0,0 -5.86768,-11.7164 -6.29468,-14.1356 -0.427,-2.4192 -64.95112,1.4705 -64.95112,1.4705 l -12.99971,22.3893 -14.99238,8.2537 -98.63649,50.1863 -25.66727,-27.4649 143.17748,-169.97158 -0.41792,-43.81828 -277.50099,49.94914 -4e-4,-186.3724 c 0,0 1.4513,-31.60537 2.2089,-8.87694 0.7577,22.72843 1.5869,87.09738 1.5869,87.09738 l 114.67262,-96.43551 v -44.06718 c 0,0 1.99249,-16.83944 2.98881,-14.70487 0.99632,2.13457 3.03661,14.70487 3.03661,14.70487 v 38.99162 l 147.40914,-127.60034 12.6676,-231.8152 40.61224,-3.03584 1.04377,-158.19599 c 0,0 10.34284,-103.60792 13.87838,-107.14342 3.53553,-3.5356 17.21422,-54.42048 19.91855,-54.42048"
       id="path4178-9"
       inkscape:connector-curvature="0"
       sodipodi:nodetypes="cscccccccccccccscccccccc"
       inkscape:export-filename="C:\Users\Eric\Documents\Foreign Aid Fighter\Assets\Models\enemyplane.png"
       inkscape:export-xdpi="44.268353"
       inkscape:export-ydpi="44.268353" />
  </g>
</svg>
