<?xml version="1.0" encoding="UTF-8" standalone="no"?>
<!-- Created with Inkscape (http://www.inkscape.org/) -->

<svg
   xmlns:dc="http://purl.org/dc/elements/1.1/"
   xmlns:cc="http://creativecommons.org/ns#"
   xmlns:rdf="http://www.w3.org/1999/02/22-rdf-syntax-ns#"
   xmlns:svg="http://www.w3.org/2000/svg"
   xmlns="http://www.w3.org/2000/svg"
   xmlns:sodipodi="http://sodipodi.sourceforge.net/DTD/sodipodi-0.dtd"
   xmlns:inkscape="http://www.inkscape.org/namespaces/inkscape"
   width="210mm"
   height="297mm"
   viewBox="0 0 210 297"
   version="1.1"
   id="svg7357"
   inkscape:version="0.92.2 (5c3e80d, 2017-08-06)"
   sodipodi:docname="splash.svg"
   inkscape:export-filename="C:\Users\Eric\Documents\Foreign Aid Fighter\Assets\splash.png"
   inkscape:export-xdpi="324.82599"
   inkscape:export-ydpi="324.82599">
  <defs
     id="defs7351">
    <filter
       x="-0.25"
       width="1.5"
       y="-0.25"
       height="1.5"
       inkscape:menu-tooltip="Smooth rainbow colors melted along the edges and colorizable"
       inkscape:menu="Textures"
       inkscape:label="Tinted Rainbow"
       style="color-interpolation-filters:sRGB;"
       id="filter1792">
      <feGaussianBlur
         result="result8"
         stdDeviation="5"
         id="feGaussianBlur1780" />
      <feTurbulence
         baseFrequency="0.015"
         numOctaves="2"
         type="fractalNoise"
         result="result7"
         seed="20"
         id="feTurbulence1782" />
      <feComposite
         in="SourceGraphic"
         operator="in"
         result="result6"
         in2="result8"
         id="feComposite1784" />
      <feComposite
         in="result6"
         operator="arithmetic"
         result="result2"
         in2="result7"
         k3="1.7"
         id="feComposite1786" />
      <feComposite
         in2="result6"
         operator="in"
         in="result2"
         result="fbSourceGraphic"
         id="feComposite1788" />
      <feComposite
         in2="SourceGraphic"
         in="fbSourceGraphic"
         k3="0.3"
         k2="1.5"
         operator="arithmetic"
         result="result9"
         id="feComposite1790" />
    </filter>
  </defs>
  <sodipodi:namedview
     id="base"
     pagecolor="#ffffff"
     bordercolor="#666666"
     borderopacity="1.0"
     inkscape:pageopacity="0.0"
     inkscape:pageshadow="2"
     inkscape:zoom="1.4"
     inkscape:cx="442.58829"
     inkscape:cy="554.11483"
     inkscape:document-units="mm"
     inkscape:current-layer="layer1"
     showgrid="false"
     inkscape:window-width="1503"
     inkscape:window-height="1251"
     inkscape:window-x="2391"
     inkscape:window-y="-9"
     inkscape:window-maximized="1" />
  <metadata
     id="metadata7354">
    <rdf:RDF>
      <cc:Work
         rdf:about="">
        <dc:format>image/svg+xml</dc:format>
        <dc:type
           rdf:resource="http://purl.org/dc/dcmitype/StillImage" />
        <dc:title></dc:title>
      </cc:Work>
    </rdf:RDF>
  </metadata>
  <g
     inkscape:label="Layer 1"
     inkscape:groupmode="layer"
     id="layer1"
     style="display:inline">
    <path
       style="fill:none;stroke:#000000;stroke-width:0.26458332px;stroke-linecap:butt;stroke-linejoin:miter;stroke-opacity:1"
       d="m 79.84677,182.24114 c 0,0 1.904296,-2.3052 2.338609,-3.62484 0.434314,-1.31964 0.952148,-2.3219 1.069078,-3.40768 0.11693,-1.08579 0.300678,-9.80546 0.300678,-9.80546 0,0 0.968851,-0.23386 1.035669,-1.30294 0.06682,-1.06907 -0.03341,-2.20497 -0.03341,-2.20497 h 5.545844 c 0,0 0.100224,1.93771 0.167042,2.63929 0.06682,0.70158 0.701583,2.77292 1.00226,2.80633 0.300681,0.0334 0.400905,-0.26727 1.002263,-1.63703 0.601356,-1.36976 0.46772,-3.70836 0.46772,-3.70836 l 3.10701,0.0334 2.037929,-0.0334 c 0,0 2.071339,0 2.204978,0.0668 0.13363,0.0668 -0.0668,5.31198 0.83522,5.14493 0.90203,-0.16704 1.20271,-5.0113 1.26952,-5.4122 0.0668,-0.40091 14.29892,-0.43432 14.29892,-0.43432 0,0 2.60588,-4.94448 -0.36749,-5.27857 -2.97338,-0.33409 -23.887216,-3.10701 -23.887216,-3.10701 l -7.416731,-0.16704 -1.202711,-1.5368 -0.03341,-12.86235 11.225321,-1.97111 -0.03341,-2.87315 -12.895754,-1.73725 -2.104748,-1.5368"
       id="path7370"
       inkscape:connector-curvature="0"
       inkscape:export-xdpi="324.82599"
       inkscape:export-ydpi="324.82599"
       inkscape:export-filename="C:\Users\Eric\Documents\Foreign Aid Fighter\Assets\Models\cargoclane.png" />
    <path
       style="fill:none;stroke:#000000;stroke-width:0.26458332px;stroke-linecap:butt;stroke-linejoin:miter;stroke-opacity:1"
       d="m 79.713161,182.24114 c 0,0 -1.9043,-2.3052 -2.33861,-3.62484 -0.43432,-1.31964 -0.95215,-2.3219 -1.06908,-3.40768 -0.11693,-1.08579 -0.30068,-9.80546 -0.30068,-9.80546 0,0 -0.96885,-0.23386 -1.03567,-1.30294 -0.0668,-1.06907 0.0334,-2.20497 0.0334,-2.20497 h -5.54584 c 0,0 -0.10022,1.93771 -0.16704,2.63929 -0.0668,0.70158 -0.70159,2.77292 -1.00226,2.80633 -0.30068,0.0334 -0.40091,-0.26727 -1.00227,-1.63703 -0.60135,-1.36976 -0.46772,-3.70836 -0.46772,-3.70836 l -3.107005,0.0334 -2.037929,-0.0334 c 0,0 -2.071339,0 -2.204978,0.0668 -0.13363,0.0668 0.0668,5.31197 -0.83522,5.14492 -0.90203,-0.16703 -1.202715,-5.0113 -1.269525,-5.4122 -0.0668,-0.40091 -14.29892,-0.43431 -14.29892,-0.43431 0,0 -2.60588,-4.94449 0.36749,-5.27858 2.97338,-0.33409 23.887217,-3.10701 23.887217,-3.10701 l 7.41673,-0.16703 1.20272,-1.5368 0.0334,-12.86235 -11.22533,-1.97111 0.0334,-2.87315 12.89576,-1.73725 2.10475,-1.5368"
       id="path7370-6"
       inkscape:connector-curvature="0"
       inkscape:export-xdpi="324.82599"
       inkscape:export-ydpi="324.82599"
       inkscape:export-filename="C:\Users\Eric\Documents\Foreign Aid Fighter\Assets\Models\cargoclane.png" />
    <ellipse
       style="fill:#afe9dd;fill-opacity:1;stroke-width:0.08176736"
       id="path7389"
       cx="79.847473"
       cy="173.68526"
       rx="2.2678571"
       ry="3.4962788"
       inkscape:export-xdpi="324.82599"
       inkscape:export-ydpi="324.82599"
       inkscape:export-filename="C:\Users\Eric\Documents\Foreign Aid Fighter\Assets\Models\cargoclane.png" />
    <path
       style="fill:#c4c8b7;fill-opacity:1;stroke-width:0.09449405;filter:url(#filter1792)"
       d="m 79.343941,181.43014 c -0.320786,-0.4277 -0.773057,-1.08674 -1.005046,-1.46454 -0.394396,-0.64227 -1.253665,-2.7814 -1.546032,-3.84881 -0.161473,-0.58952 -0.283374,-2.99021 -0.370975,-7.3058 l -0.06771,-3.33599 -0.361286,-0.18431 c -0.597786,-0.30497 -0.693028,-0.59618 -0.68548,-2.09597 l 0.0065,-1.29929 H 72.401537 69.48916 l -0.04387,0.21261 c -0.02413,0.11694 -0.07116,0.76243 -0.104514,1.43443 -0.03335,0.672 -0.139102,1.52858 -0.234997,1.90353 -0.217392,0.85 -0.579025,1.76347 -0.715722,1.8079 -0.147002,0.0478 -0.882613,-1.6035 -1.040045,-2.33466 -0.07274,-0.33782 -0.160089,-1.13511 -0.194112,-1.77176 l -0.06186,-1.15755 -3.694311,0.001 c -2.112531,7.9e-4 -3.753813,0.0391 -3.833286,0.0893 -0.109389,0.0692 -0.153977,0.45226 -0.209415,1.79924 -0.08837,2.14716 -0.282086,3.30715 -0.552276,3.30715 -0.299,0 -0.733634,-1.78622 -0.987335,-4.05764 -0.07802,-0.69853 -0.175963,-1.30417 -0.217656,-1.34587 -0.154152,-0.15415 -2.560815,-0.27056 -7.43824,-0.35979 -2.7545,-0.0504 -5.420785,-0.0925 -5.925079,-0.0935 l -0.916895,-0.002 -0.200339,-0.44885 c -0.703927,-1.5771 -0.948868,-3.1839 -0.575403,-3.77463 0.319463,-0.5053 0.57763,-0.6067 2.020393,-0.79355 0.739801,-0.0958 3.343642,-0.4325 5.786313,-0.74821 2.44267,-0.3157 7.311477,-0.95196 10.819569,-1.41391 l 6.378347,-0.83991 3.260045,-0.0571 c 4.546859,-0.0796 4.085773,0.0119 4.84804,-0.96271 l 0.632613,-0.80887 -1.58e-4,-6.53354 -1.59e-4,-6.53354 -5.598613,-0.9786 c -3.079239,-0.53823 -5.60611,-0.98512 -5.615275,-0.9931 -0.0092,-0.008 0.0074,-0.58894 0.03686,-1.29104 l 0.05352,-1.27654 6.246992,-0.83097 c 3.435848,-0.45703 6.346793,-0.87179 6.468774,-0.92168 0.121978,-0.0499 0.621734,-0.38741 1.110562,-0.75003 0.488831,-0.36262 0.913681,-0.6593 0.944113,-0.6593 0.03043,0 0.500036,0.32408 1.04357,0.72019 l 0.988237,0.72019 6.39758,0.86351 6.39758,0.86351 0.02625,1.28939 0.02622,1.28939 -0.640443,0.10864 c -0.352245,0.0597 -2.872864,0.50041 -5.60138,0.97925 l -4.960937,0.87062 -0.02222,6.51838 -0.02223,6.51837 0.636447,0.81957 0.636447,0.81957 0.566965,0.0516 c 0.31183,0.0284 1.991464,0.0762 3.732514,0.10634 l 3.165552,0.0547 6.425594,0.84333 c 3.534073,0.46383 8.743063,1.14193 11.575523,1.50688 2.83246,0.36495 5.43591,0.70263 5.78545,0.75039 0.72128,0.0986 1.1238,0.33523 1.30203,0.7655 0.27512,0.66421 -0.0693,2.6025 -0.67564,3.80235 l -0.17908,0.35436 -0.91939,0.002 c -0.50567,0.001 -3.15182,0.0429 -5.88034,0.093 -5.22169,0.096 -7.2417,0.20525 -7.43103,0.40199 -0.0621,0.0645 -0.18124,0.71263 -0.26475,1.44024 -0.25627,2.23287 -0.68556,3.9215 -0.99695,3.9215 -0.25779,0 -0.56021,-2.20713 -0.56554,-4.12737 -0.002,-0.5744 -0.0403,-0.81095 -0.15064,-0.92131 -0.12995,-0.12995 -0.611948,-0.14849 -3.860671,-0.14849 h -3.71221 l -0.05396,1.20479 c -0.02968,0.66265 -0.10392,1.43868 -0.164986,1.72452 -0.154239,0.72197 -0.86741,2.31511 -1.036362,2.31511 -0.0765,0 -0.214339,-0.2069 -0.314765,-0.47248 -0.429445,-1.13563 -0.548788,-1.73449 -0.654378,-3.28366 l -0.107881,-1.58278 -2.934282,-2e-5 -2.934282,-3e-5 v 1.36292 c 0,1.51398 -0.07097,1.72542 -0.682522,2.03342 l -0.292364,0.14724 -0.0545,1.03943 c -0.02998,0.57169 -0.07958,2.25132 -0.110228,3.73252 -0.03065,1.48119 -0.08994,3.33595 -0.131744,4.12168 -0.0736,1.38314 -0.09174,1.47483 -0.570275,2.88206 -0.589492,1.73353 -1.081752,2.70307 -2.040083,4.01808 -0.392372,0.53841 -0.721297,0.97805 -0.730946,0.97699 -0.0097,-0.001 -0.280009,-0.35187 -0.600792,-0.77958 z m 1.132768,-4.15227 c 1.638094,-0.49079 2.352395,-3.49968 1.317922,-5.55157 -1.122432,-2.22634 -3.319936,-1.69046 -3.945319,0.9621 -0.454202,1.9265 0.316281,4.10152 1.617194,4.56523 0.458563,0.16346 0.539078,0.16539 1.010203,0.0242 z"
       id="path7393"
       inkscape:connector-curvature="0"
       inkscape:export-xdpi="324.82599"
       inkscape:export-ydpi="324.82599"
       inkscape:export-filename="C:\Users\Eric\Documents\Foreign Aid Fighter\Assets\Models\cargoclane.png" />
    <path
       style="fill:none;stroke:#000000;stroke-width:0.26458332px;stroke-linecap:butt;stroke-linejoin:miter;stroke-opacity:1"
       d="m 105.10374,154.74579 v 1.5368 l 10.49033,1.20272 -0.16705,-1.46998"
       id="path7397"
       inkscape:connector-curvature="0"
       sodipodi:nodetypes="cccc"
       inkscape:export-xdpi="324.82599"
       inkscape:export-ydpi="324.82599"
       inkscape:export-filename="C:\Users\Eric\Documents\Foreign Aid Fighter\Assets\Models\cargoclane.png" />
    <path
       style="fill:none;stroke:#000000;stroke-width:0.26458332px;stroke-linecap:butt;stroke-linejoin:miter;stroke-opacity:1"
       d="m 115.59407,157.48531 v 3.8587"
       id="path7399"
       inkscape:connector-curvature="0"
       inkscape:export-xdpi="324.82599"
       inkscape:export-ydpi="324.82599"
       inkscape:export-filename="C:\Users\Eric\Documents\Foreign Aid Fighter\Assets\Models\cargoclane.png" />
    <path
       style="fill:none;stroke:#000000;stroke-width:0.26458332px;stroke-linecap:butt;stroke-linejoin:miter;stroke-opacity:1"
       d="m 54.612478,154.76247 v 1.5368 l -10.49033,1.20272 0.16705,-1.46998"
       id="path7397-3"
       inkscape:connector-curvature="0"
       sodipodi:nodetypes="cccc"
       inkscape:export-xdpi="324.82599"
       inkscape:export-ydpi="324.82599"
       inkscape:export-filename="C:\Users\Eric\Documents\Foreign Aid Fighter\Assets\Models\cargoclane.png" />
    <path
       style="fill:none;stroke:#000000;stroke-width:0.26458332px;stroke-linecap:butt;stroke-linejoin:miter;stroke-opacity:1"
       d="m 44.122148,157.50199 v 3.8587"
       id="path7399-1"
       inkscape:connector-curvature="0"
       inkscape:export-xdpi="324.82599"
       inkscape:export-ydpi="324.82599"
       inkscape:export-filename="C:\Users\Eric\Documents\Foreign Aid Fighter\Assets\Models\cargoclane.png" />
    <flowRoot
       xml:space="preserve"
       id="flowRoot1434"
       style="font-style:normal;font-variant:normal;font-weight:800;font-stretch:normal;font-size:40px;line-height:0px;font-family:'Helvetica Inserat LT Std';-inkscape-font-specification:'Helvetica Inserat LT Std, Ultra-Bold';font-variant-ligatures:normal;font-variant-caps:normal;font-variant-numeric:normal;font-feature-settings:normal;text-align:start;letter-spacing:0px;word-spacing:0px;writing-mode:lr-tb;text-anchor:start;fill:#ffd42a;fill-opacity:1;stroke:none"
       transform="matrix(0.33047173,0,0,0.33047173,-20.007296,-22.931851)"><flowRegion
         id="flowRegion1436"
         style="font-style:normal;font-variant:normal;font-weight:800;font-stretch:normal;font-size:40px;font-family:'Helvetica Inserat LT Std';-inkscape-font-specification:'Helvetica Inserat LT Std, Ultra-Bold';font-variant-ligatures:normal;font-variant-caps:normal;font-variant-numeric:normal;font-feature-settings:normal;text-align:start;writing-mode:lr-tb;text-anchor:start;fill:#ffd42a"><rect
           id="rect1438"
           width="573.7666"
           height="137.38075"
           x="149.50258"
           y="449.75809"
           style="font-style:normal;font-variant:normal;font-weight:800;font-stretch:normal;font-size:40px;font-family:'Helvetica Inserat LT Std';-inkscape-font-specification:'Helvetica Inserat LT Std, Ultra-Bold';font-variant-ligatures:normal;font-variant-caps:normal;font-variant-numeric:normal;font-feature-settings:normal;text-align:start;writing-mode:lr-tb;text-anchor:start;fill:#ffd42a" /></flowRegion><flowPara
         id="flowPara1440">Foreign Aid Fighter</flowPara></flowRoot>    <text
       xml:space="preserve"
       style="font-style:normal;font-weight:normal;font-size:1.96849406px;line-height:0px;font-family:sans-serif;letter-spacing:0px;word-spacing:0px;fill:#ffffff;fill-opacity:1;stroke:none;stroke-width:0.04921235;"
       x="102.54617"
       y="174.7076"
       id="text1796"
       transform="scale(0.988719,1.0114097)"><tspan
         sodipodi:role="line"
         id="tspan1794"
         x="102.54617"
         y="174.7076"
         style="stroke-width:0.04921235;fill:#ffffff;">Made by Eric</tspan></text>
  </g>
</svg>
