<?xml version="1.0" encoding="UTF-8" standalone="no"?>
<!-- Created with Inkscape (http://www.inkscape.org/) -->

<svg
   xmlns:dc="http://purl.org/dc/elements/1.1/"
   xmlns:cc="http://creativecommons.org/ns#"
   xmlns:rdf="http://www.w3.org/1999/02/22-rdf-syntax-ns#"
   xmlns:svg="http://www.w3.org/2000/svg"
   xmlns="http://www.w3.org/2000/svg"
   xmlns:sodipodi="http://sodipodi.sourceforge.net/DTD/sodipodi-0.dtd"
   xmlns:inkscape="http://www.inkscape.org/namespaces/inkscape"
   width="210mm"
   height="297mm"
   viewBox="0 0 210 297"
   version="1.1"
   id="svg2066"
   inkscape:version="0.92.2 (5c3e80d, 2017-08-06)"
   sodipodi:docname="grass.svg">
  <defs
     id="defs2060" />
  <sodipodi:namedview
     id="base"
     pagecolor="#ffffff"
     bordercolor="#666666"
     borderopacity="1.0"
     inkscape:pageopacity="0.0"
     inkscape:pageshadow="2"
     inkscape:zoom="1.4"
     inkscape:cx="783.75089"
     inkscape:cy="470.39777"
     inkscape:document-units="mm"
     inkscape:current-layer="layer1"
     showgrid="false"
     inkscape:window-width="1503"
     inkscape:window-height="1251"
     inkscape:window-x="2391"
     inkscape:window-y="-9"
     inkscape:window-maximized="1" />
  <metadata
     id="metadata2063">
    <rdf:RDF>
      <cc:Work
         rdf:about="">
        <dc:format>image/svg+xml</dc:format>
        <dc:type
           rdf:resource="http://purl.org/dc/dcmitype/StillImage" />
        <dc:title></dc:title>
      </cc:Work>
    </rdf:RDF>
  </metadata>
  <g
     inkscape:label="Layer 1"
     inkscape:groupmode="layer"
     id="layer1">
    <rect
       style="opacity:1;fill:#5c8000;fill-opacity:1;stroke:none;stroke-width:0.86500001;stroke-miterlimit:4;stroke-dasharray:none;stroke-opacity:1"
       id="rect2611"
       width="130.0238"
       height="106.58929"
       x="35.529762"
       y="94.404755" />
    <path
       style="fill:none;stroke:#000000;stroke-width:0.26458332px;stroke-linecap:butt;stroke-linejoin:miter;stroke-opacity:1"
       d="m 71.059523,159.41667 c -0.145645,-0.88137 -1.133287,-4.53829 -0.755951,-6.04762 0.136657,-0.54663 0.57777,-0.97737 0.755951,-1.51191 0.442188,-1.32656 -0.794104,-0.7178 0.755952,-2.26786"
       id="path2613"
       inkscape:connector-curvature="0" />
    <path
       style="fill:none;stroke:#000000;stroke-width:0.26458332px;stroke-linecap:butt;stroke-linejoin:miter;stroke-opacity:1"
       d="m 106.37327,161.89525 c -0.1414,-0.17675 -0.54128,-0.72702 -0.80181,-0.93544 -0.12541,-0.10033 -0.26727,-0.17818 -0.4009,-0.26727 -0.13364,-0.0891 -0.28734,-0.1537 -0.40091,-0.26727 -0.0315,-0.0315 0.0315,-0.10214 0,-0.13363 -0.27649,-0.2765 0.0108,0.42252 -0.26726,-0.13364 -0.0199,-0.0398 0,-0.0891 0,-0.13363 0,-0.0446 -0.0247,-0.0966 0,-0.13364 0.1405,-0.21076 0.31047,-0.31128 0.53453,-0.4009 0.13079,-0.0523 0.28012,-0.0612 0.40091,-0.13364 0.10803,-0.0648 0.16647,-0.19167 0.26727,-0.26727 0.13021,-0.0977 0.31915,-0.10377 0.4009,-0.26727 0.0199,-0.0398 -0.0199,-0.0938 0,-0.13363 0.0564,-0.11269 0.21092,-0.15458 0.26727,-0.26727 0.063,-0.12599 0.0491,-0.28822 0.13364,-0.40091 0.0598,-0.0797 0.19683,-0.0632 0.26726,-0.13363 0.0315,-0.0315 -0.0315,-0.10214 0,-0.13364 0.11357,-0.11356 0.27242,-0.1709 0.40091,-0.26726 0.0504,-0.0378 0.0812,-0.0987 0.13363,-0.13364 0.34147,-0.22764 0.24554,-0.0156 0.53454,-0.4009 0.28393,-0.37857 0.0349,-0.13939 0.13364,-0.53454 0.0242,-0.0966 0.10947,-0.17064 0.13363,-0.26727 0.0216,-0.0864 -0.0216,-0.18084 0,-0.26727 0.0242,-0.0966 0.10948,-0.17064 0.13364,-0.26727 0.0346,-0.13843 0,-0.38131 0,-0.53454"
       id="path2617"
       inkscape:connector-curvature="0" />
    <path
       style="fill:none;stroke:#000000;stroke-width:0.26458332px;stroke-linecap:butt;stroke-linejoin:miter;stroke-opacity:1"
       d="m 122.00854,143.98819 c -0.35636,-0.17818 -0.73757,-0.31353 -1.06908,-0.53453 -0.0829,-0.0553 -0.0891,-0.17819 -0.13364,-0.26728 -0.31181,-0.22272 -0.61049,-0.46508 -0.93544,-0.66817 -0.0378,-0.0236 -0.0938,0.0199 -0.13363,0 -0.11317,-0.0566 -0.24919,-0.31048 -0.26727,-0.4009 -0.005,-0.0231 -0.005,-0.91231 0,-0.93545 0.0475,-0.23747 0.24343,-0.37706 0.4009,-0.53453 0.26727,-0.26728 0.53454,-0.53454 0.80181,-0.80181 0.13363,-0.13364 0.26727,-0.26727 0.4009,-0.40091 0.13364,-0.13363 0.25173,-0.28488 0.40091,-0.4009 0.25355,-0.19721 0.54042,-0.34784 0.80181,-0.53454 0.0513,-0.0366 0.0943,-0.0844 0.13363,-0.13364 0.13914,-0.17391 0.2904,-0.34116 0.40091,-0.53454 0.40746,-0.0946 0.0515,-0.37026 0.13363,-0.53453 0.0282,-0.0563 0.10546,-0.0773 0.13364,-0.13364 0.0199,-0.0398 -0.0141,-0.0914 0,-0.13363 0.0315,-0.0945 0.10213,-0.17278 0.13363,-0.26727 0.0282,-0.0845 0,-0.17818 0,-0.26727 0,-0.0891 0.0282,-0.18275 0,-0.26727 -0.095,-0.28497 -0.18336,-0.31699 -0.4009,-0.53454 -0.0891,-0.0891 -0.15458,-0.21093 -0.26727,-0.26727 -0.16428,-0.0821 -0.36401,-0.0654 -0.53454,-0.13364 -0.0585,-0.0234 -0.0739,-0.11371 -0.13364,-0.13363 -0.16903,-0.0563 -0.3655,0.0564 -0.53453,0 -0.0598,-0.0199 -0.0773,-0.10546 -0.13364,-0.13364 -0.0398,-0.0199 -0.0938,0.0199 -0.13364,0 -0.0714,-0.0357 -0.33055,-0.33055 -0.4009,-0.4009 -0.0704,-0.0703 -0.36522,-0.32953 -0.4009,-0.40091 -0.0203,-0.0407 0,-0.34072 0,-0.4009 0,-0.35636 0,-0.71272 0,-1.06908 0,-0.1385 -0.0308,-0.74027 0,-0.8018 0.11615,-0.23232 0.26727,-0.44545 0.4009,-0.66818"
       id="path2619"
       inkscape:connector-curvature="0" />
    <path
       style="fill:none;stroke:#000000;stroke-width:0.26458332px;stroke-linecap:butt;stroke-linejoin:miter;stroke-opacity:1"
       d="m 103.70058,130.75835 c -0.0891,-0.48999 -0.20145,-0.97632 -0.26727,-1.46998 -0.0236,-0.17662 0,-0.35636 0,-0.53454 0,-0.17818 0,-0.35636 0,-0.53454 0,-0.17818 0.0432,-0.36168 0,-0.53454 -0.0483,-0.19326 -0.17818,-0.35636 -0.26727,-0.53454 -0.0446,-0.0891 -0.1141,-0.16959 -0.13364,-0.26727 -0.0262,-0.13104 0,-0.26726 0,-0.4009 0,-0.30033 0.0216,-0.49132 -0.13363,-0.80181 -0.0657,-0.1315 -0.46879,-0.40304 -0.53454,-0.53454 -0.0199,-0.0398 0,-0.0891 0,-0.13363 0,-0.19891 0.0199,-0.17057 -0.13364,-0.40091 -0.0349,-0.0524 -0.0773,-0.10546 -0.13363,-0.13363 -0.0398,-0.0199 -0.10893,0.0371 -0.13364,0 -0.18185,-0.27278 -0.13363,-0.62941 -0.13363,-0.93545 0,-0.17817 0,-0.35636 0,-0.53453 0,-0.0891 -0.0331,-0.18456 0,-0.26727 0.0597,-0.14912 0.204,-0.25329 0.26727,-0.40091 0.0724,-0.16881 0.0691,-0.36257 0.13363,-0.53454 0.1399,-0.37305 0.3776,-0.70287 0.53454,-1.06908 0.0555,-0.12947 0.0949,-0.26546 0.13364,-0.4009 0.0504,-0.1766 0.0515,-0.37027 0.13363,-0.53454 0.14366,-0.2873 0.37854,-0.52101 0.53454,-0.80181 0.18677,-0.33618 0.13364,-0.70381 0.13364,-1.06907"
       id="path2621"
       inkscape:connector-curvature="0" />
    <path
       style="fill:none;stroke:#000000;stroke-width:0.26458332px;stroke-linecap:butt;stroke-linejoin:miter;stroke-opacity:1"
       d="m 85.258978,115.65762 c -0.08175,-0.20437 -0.331073,-0.78975 -0.400905,-1.06907 -0.0108,-0.0432 0.01408,-0.0914 0,-0.13364 -0.205531,-0.6166 -0.128355,0.17059 -0.267269,-0.80181 -0.01889,-0.13229 0,-0.26727 0,-0.4009 0,-0.13364 0,-0.26727 0,-0.40091 0,-0.0891 0.03309,-0.18455 0,-0.26727 -0.05965,-0.14912 -0.178178,-0.26726 -0.267269,-0.4009 0,-0.17818 0.03494,-0.35982 0,-0.53454 -0.01236,-0.0618 -0.118356,-0.0725 -0.133635,-0.13363 -0.03241,-0.12965 0,-0.26727 0,-0.40091 0,-0.0445 0.01992,-0.0938 0,-0.13363 -0.02817,-0.0564 -0.178179,-0.0891 -0.133633,-0.13364 0.04454,-0.0445 0.08909,0.0891 0.133633,0.13364"
       id="path2623"
       inkscape:connector-curvature="0" />
    <path
       style="fill:none;stroke:#000000;stroke-width:0.26458332px;stroke-linecap:butt;stroke-linejoin:miter;stroke-opacity:1"
       d="m 62.006529,125.41296 c 0,-0.92058 0.01588,-1.49254 -0.133635,-2.53906 -0.04586,-0.32103 -0.213956,-0.61556 -0.267269,-0.93544 -0.03662,-0.2197 0.01849,-0.44622 0,-0.66818 -0.06787,-0.81445 -0.327152,-1.59414 -0.400905,-2.40542 -0.02016,-0.22181 0.02763,-0.44717 0,-0.66818 -0.01746,-0.13977 -0.09947,-0.26424 -0.133633,-0.4009 -0.05509,-0.22035 -0.105463,-0.44279 -0.133636,-0.66817 -0.01659,-0.13261 0.04692,-0.27578 0,-0.40091 -0.0912,-0.2432 -0.298587,-0.42943 -0.400904,-0.66817 -0.03509,-0.0819 0.01259,-0.17908 0,-0.26727 -0.005,-0.035 -0.211688,-1.10545 -0.267269,-1.20271 -0.09377,-0.16409 -0.309123,-0.2357 -0.400905,-0.40091 -0.668173,-1.20271 0,-0.4009 -0.400904,-1.20271 -0.315524,-0.63105 0.07028,0.81565 -0.267269,-0.53454 -0.06682,-0.26727 0.133636,0 0,-0.40091 -0.01992,-0.0598 -0.105463,-0.0773 -0.133636,-0.13363 -0.02032,-0.0406 0,-0.44226 0,-0.53454 0,-0.35636 0,-0.71272 0,-1.06908 0,-0.0309 -0.02387,-0.75407 0,-0.80181 0.07183,-0.14365 0.133636,-0.31181 0.267272,-0.4009 0.152815,-0.10188 0.361931,-0.0709 0.534537,-0.13363 1.890776,-0.68756 -0.128791,-0.20741 2.405425,-0.66818"
       id="path2625"
       inkscape:connector-curvature="0" />
    <path
       style="fill:none;stroke:#000000;stroke-width:0.26458332px;stroke-linecap:butt;stroke-linejoin:miter;stroke-opacity:1"
       d="m 128.0221,117.39487 c 0.8909,0.22273 1.7818,0.44545 2.6727,0.66818 0.12857,0.0321 0.74059,0.23106 0.93544,0.13363 0.21843,-0.10921 0.13364,-0.85957 0.13364,-0.93544 0,-0.43509 0.0563,-0.55548 -0.13364,-0.93544 -0.0718,-0.14366 -0.19544,-0.25725 -0.26727,-0.40091 -0.063,-0.12599 -0.0891,-0.26727 -0.13363,-0.4009 -0.0987,-0.29622 -0.2241,-0.67023 -0.40091,-0.93544 -0.12354,-0.18532 -0.25596,-0.36544 -0.4009,-0.53454 -0.46245,-0.53952 -0.6195,-0.45342 -1.06908,-1.20272 -0.0945,-0.15749 -0.0654,-0.36401 -0.13363,-0.53453 -0.11098,-0.27745 -0.27955,-0.52875 -0.40091,-0.80181 -0.0572,-0.12873 -0.11048,-0.26196 -0.13363,-0.40091 -0.022,-0.13181 0,-0.26727 0,-0.4009 0,-0.26727 0,-0.53454 0,-0.80181 0,-0.53454 0,-1.06908 0,-1.60362 0,-0.13363 0,-0.26727 0,-0.4009 0,-0.0891 0.0216,-0.18084 0,-0.26727 -0.0242,-0.0966 -0.11726,-0.16902 -0.13364,-0.26727 -0.0293,-0.17576 0,-0.35636 0,-0.53454 0,-0.35636 0,-0.71272 0,-1.06908 0,-0.0445 0,0.0891 0,0.13364"
       id="path2627"
       inkscape:connector-curvature="0" />
    <path
       style="fill:none;stroke:#000000;stroke-width:0.26458332px;stroke-linecap:butt;stroke-linejoin:miter;stroke-opacity:1"
       d="m 149.13639,153.34263 c -0.61422,-0.30712 -0.33532,-0.26727 -0.8018,-0.26727 -0.0445,0 -0.10214,-0.0315 -0.13364,0 -0.0704,0.0704 -0.0784,0.18439 -0.13363,0.26727 -0.035,0.0524 -0.0987,0.0812 -0.13364,0.13363 -0.0553,0.0829 -0.0891,0.17818 -0.13363,0.26727 -0.0445,0.0891 -0.10214,0.17278 -0.13364,0.26727 -0.0141,0.0423 0.0141,0.0914 0,0.13364 -0.0315,0.0945 -0.10947,0.17063 -0.13363,0.26726 -0.0432,0.17286 0.0293,0.35879 0,0.53454 -0.0302,0.18117 -0.10344,0.35338 -0.13364,0.53454 -0.0146,0.0879 0,0.17818 0,0.26727 0,0.0445 0.0199,0.0938 0,0.13364 -0.0718,0.14365 -0.20762,0.25178 -0.26727,0.4009 -0.02,0.0501 0,0.55978 0,0.66818 0,0.35635 0,0.71271 0,1.06907 0,0.13364 0,0.26727 0,0.40091 0,0.0891 -0.0175,0.17991 0,0.26727 0.0276,0.13813 0.11372,0.26146 0.13364,0.4009 0.0252,0.17639 0,0.35636 0,0.53454 0,0.44545 0,0.8909 0,1.33635"
       id="path2629"
       inkscape:connector-curvature="0" />
    <path
       style="fill:none;stroke:#000000;stroke-width:0.26458332px;stroke-linecap:butt;stroke-linejoin:miter;stroke-opacity:1"
       d="m 142.58829,168.9779 c -0.17818,0.0891 -0.36878,0.15676 -0.53454,0.26726 -0.10483,0.0699 -0.16975,0.18749 -0.26727,0.26727 -0.39308,0.32162 -0.80962,0.61383 -1.20271,0.93545 -0.0975,0.0798 -0.16889,0.18856 -0.26727,0.26727 -0.12541,0.10033 -0.28734,0.1537 -0.4009,0.26727 -0.27339,0.27338 -0.32492,0.621 -0.53454,0.93544 -0.0699,0.10483 -0.19168,0.16647 -0.26727,0.26727 -0.0598,0.0797 -0.0891,0.17818 -0.13364,0.26727 -0.0891,0.17818 -0.19328,0.34957 -0.26727,0.53454 -0.0165,0.0414 0,0.0891 0,0.13363 0,0.13364 0.0189,0.26861 0,0.40091 -0.026,0.18181 -0.0976,0.35444 -0.13363,0.53453 -0.009,0.0437 0,0.0891 0,0.13364 0,0.26727 0,0.53454 0,0.80181 0,0.80181 0,1.60361 0,2.40542 0,0.11581 0.0258,0.45713 0,0.53454 -0.0315,0.0945 -0.10214,0.17278 -0.13364,0.26727 -0.0224,0.0672 0,0.76691 0,0.80181 0,0.0445 0.0247,0.0966 0,0.13364 -0.0699,0.10483 -0.19738,0.16243 -0.26726,0.26726 -0.0494,0.0741 0.0216,0.18084 0,0.26728 -0.10238,0.40948 -0.25614,0.52339 0,0.26726"
       id="path2631"
       inkscape:connector-curvature="0" />
    <path
       style="fill:none;stroke:#000000;stroke-width:0.26458332px;stroke-linecap:butt;stroke-linejoin:miter;stroke-opacity:1"
       d="m 107.84325,181.40593 c -0.17818,-0.0446 -0.35087,-0.13364 -0.53454,-0.13364 -0.0996,0 -0.17818,0.0891 -0.26727,0.13364 -0.0891,0.0445 -0.18439,0.0784 -0.26727,0.13363 -0.0524,0.035 -0.0958,0.0832 -0.13363,0.13364 -0.0964,0.12848 -0.1537,0.28733 -0.26727,0.4009 -0.0704,0.0704 -0.21202,0.0508 -0.26727,0.13364 -0.0494,0.0741 0.0282,0.18275 0,0.26727 -0.0199,0.0598 -0.11371,0.0739 -0.13363,0.13363 -0.0282,0.0845 0.0398,0.18759 0,0.26727 -0.0563,0.11269 -0.20245,0.15923 -0.26727,0.26727 -0.0725,0.12079 -0.0706,0.27491 -0.13364,0.4009 -0.0282,0.0563 -0.10546,0.0773 -0.13363,0.13364 -0.0199,0.0398 0.0141,0.0914 0,0.13363 -0.0315,0.0945 -0.0891,0.17818 -0.13364,0.26727"
       id="path2633"
       inkscape:connector-curvature="0" />
    <path
       style="fill:none;stroke:#000000;stroke-width:0.26458332px;stroke-linecap:butt;stroke-linejoin:miter;stroke-opacity:1"
       d="m 82.452648,184.47953 c -0.966584,-0.25038 -0.891704,-0.13364 -2.271792,-0.13364 -0.178178,0 -0.133633,-0.0445 -0.133633,0.13364"
       id="path2635"
       inkscape:connector-curvature="0" />
    <path
       style="fill:none;stroke:#000000;stroke-width:0.26458332px;stroke-linecap:butt;stroke-linejoin:miter;stroke-opacity:1"
       d="m 56.661139,179.26777 c -0.310999,0.72567 -0.454472,0.88302 -0.53454,1.60362 -0.01968,0.17709 0.02209,0.35773 0,0.53454 -0.02278,0.18224 -0.103439,0.35337 -0.133633,0.53453 -0.03662,0.2197 0.03661,0.44849 0,0.66818 -0.04454,0.13363 -0.08909,0.26727 -0.133636,0.4009 -0.04454,0 -0.102137,-0.0315 -0.133633,0 -0.0054,0.005 0,0.48547 0,0.53454 0,0.22273 0,0.44545 0,0.66818 0,0.0891 -0.01746,0.17991 0,0.26727 0.09008,0.4504 0.355171,0.75607 0.668173,1.06907"
       id="path2637"
       inkscape:connector-curvature="0" />
    <path
       style="fill:none;stroke:#000000;stroke-width:0.26458332px;stroke-linecap:butt;stroke-linejoin:miter;stroke-opacity:1"
       d="m 50.380304,157.35167 c -0.03232,-1.28822 0.10972,-2.59537 0,-3.87541 -0.05447,-0.63546 -0.286814,-1.24339 -0.400902,-1.87089 -0.06424,-0.35334 -0.0323,-0.72453 -0.133636,-1.06907 -0.12379,-0.42089 -0.439367,-0.77445 -0.53454,-1.20272 -0.08697,-0.39135 0.02856,-0.80282 0,-1.20271 -0.01619,-0.22656 -0.08909,-0.44545 -0.133633,-0.66817 -0.04454,-0.26727 -0.116734,-0.53138 -0.133636,-0.80181 -0.02535,-0.40574 0.10029,-1.48989 -0.133633,-2.00452 -0.132921,-0.29243 -0.421754,-0.50105 -0.53454,-0.80181 -0.159504,-0.42535 -0.157094,-0.89564 -0.267269,-1.33635 -0.06833,-0.27331 -0.193143,-0.53001 -0.267269,-0.80181 -0.05976,-0.21913 -0.07855,-0.44782 -0.133636,-0.66817 -0.03417,-0.13666 -0.09947,-0.26425 -0.133635,-0.4009 -0.05509,-0.22036 -0.05601,-0.45472 -0.133634,-0.66818 -0.102118,-0.28082 -0.315042,-0.51559 -0.400904,-0.80181 -0.0512,-0.17066 0.03494,-0.35982 0,-0.53454 -0.01236,-0.0618 -0.12128,-0.0719 -0.133636,-0.13363 -0.03494,-0.17472 0,-0.35636 0,-0.53454 0,-0.31181 0,-0.62363 0,-0.93544 0,-0.44545 0,-0.8909 0,-1.33635 0,-0.22273 0.02217,-0.44656 0,-0.66818 -0.02259,-0.226 -0.111032,-0.44216 -0.133633,-0.66817 -0.02217,-0.22162 0.02461,-0.44681 0,-0.66817 -0.166047,-1.49442 -0.133636,0.2532 -0.133636,-0.93545 0,-0.17818 0,-0.35635 0,-0.53454 0,-0.0445 -0.03984,-0.11371 0,-0.13363 0.07969,-0.0398 0.178179,0 0.267269,0"
       id="path2639"
       inkscape:connector-curvature="0" />
    <path
       style="fill:none;stroke:#000000;stroke-width:0.26458332px;stroke-linecap:butt;stroke-linejoin:miter;stroke-opacity:1"
       d="m 143.92464,122.33936 c 0.22272,0.0446 0.44332,0.16576 0.66817,0.13364 0.18184,-0.026 0.33415,-0.40102 0.40091,-0.53454 0.0445,-0.0891 0.0891,-0.17818 0.13363,-0.26727 0.0891,-0.0891 0.20245,-0.15923 0.26727,-0.26727 0.0725,-0.12079 0.0891,-0.26727 0.13364,-0.40091 0.0445,-0.13363 0.0995,-0.26424 0.13363,-0.4009 0.0108,-0.0432 -0.0247,-0.0966 0,-0.13363 0.0699,-0.10484 0.21092,-0.15458 0.26727,-0.26727 0.30572,-0.61144 0.009,-0.44398 0.13364,-1.06908 0.0123,-0.0618 0.12128,-0.0719 0.13363,-0.13364 0.0349,-0.17472 0,-0.35636 0,-0.53454 0,-0.53453 0,-1.06908 0,-1.60361 0,-0.13364 0,-0.26727 0,-0.40091 0,-0.13363 -0.0324,-0.27126 0,-0.4009 0.0153,-0.0611 0.10546,-0.0773 0.13363,-0.13364 0.0199,-0.0398 0,-0.0891 0,-0.13363 0,-0.13364 0,-0.26727 0,-0.40091 0,-0.62362 0,-1.24725 0,-1.87088 0,-1.2918 0,-2.58361 0,-3.87541"
       id="path2641"
       inkscape:connector-curvature="0" />
    <path
       style="fill:none;stroke:#000000;stroke-width:0.26458332px;stroke-linecap:butt;stroke-linejoin:miter;stroke-opacity:1"
       d="m 159.69494,189.27678 c 0.15033,-0.60132 0.0615,-0.79694 0.56696,-1.13393 0.0524,-0.0349 0.126,0 0.18899,0 0.12599,-0.12599 0.27914,-0.22972 0.37798,-0.37797 0.0349,-0.0524 -0.0446,-0.14445 0,-0.18899 0.0445,-0.0445 0.12599,0 0.18899,0 0.12599,-0.18899 0.27639,-0.36381 0.37797,-0.56696 0.0282,-0.0563 0,-0.126 0,-0.18899 0,-0.063 0,-0.12599 0,-0.18899 0,-0.37798 0,-0.75595 0,-1.13393 0,-0.37798 0,-0.75595 0,-1.13393 0,-0.0644 0.0341,-0.65367 0,-0.75595 -0.0891,-0.26727 -0.28888,-0.48868 -0.37797,-0.75595 -0.15907,-0.47719 0.38385,0.19682 -0.18899,-0.56697 -0.10691,-0.14254 -0.2863,-0.22518 -0.37798,-0.37797 -0.24875,-0.41459 -0.18899,-0.6824 -0.18899,-1.13393 0,-0.063 -0.0153,-0.12787 0,-0.18899 0.32459,-1.29836 -0.0468,-0.35457 0.37798,-0.56696 0.0797,-0.0399 0.13957,-0.11486 0.18899,-0.18899 0.0781,-0.11721 0.11085,-0.26077 0.18899,-0.37798 0.0988,-0.14825 0.27107,-0.23543 0.37797,-0.37797 0.0284,-0.0379 0.39507,-0.67001 0.56697,-0.75596 0.0563,-0.0282 0.12599,0 0.18899,0 0.18898,-0.18898 0.35826,-0.4 0.56696,-0.56696 0.6385,-0.5108 0.34193,0.26108 0.75595,-0.56697"
       id="path2643"
       inkscape:connector-curvature="0" />
    <path
       style="fill:none;stroke:#000000;stroke-width:0.26458332px;stroke-linecap:butt;stroke-linejoin:miter;stroke-opacity:1"
       d="m 161.20684,100.0744 c 0,0.75595 0,1.51191 0,2.26786 0,0.12419 -0.0355,0.46034 0,0.56697 0.0445,0.13363 0.14445,0.24434 0.18899,0.37797 0.0199,0.0598 -0.0199,0.12923 0,0.18899 0.0446,0.13363 0.14445,0.24434 0.18899,0.37797 0.0355,0.10663 0,0.44278 0,0.56697 0,0.31498 0,0.62996 0,0.94494"
       id="path2645"
       inkscape:connector-curvature="0" />
    <path
       style="fill:none;stroke:#000000;stroke-width:0.26458332px;stroke-linecap:butt;stroke-linejoin:miter;stroke-opacity:1"
       d="m 160.63988,113.11458 c -0.2162,0.41957 0.0865,0.89051 0,1.32292 -0.10188,0.50939 -0.28505,1.0008 -0.37798,1.5119 -0.0338,0.18594 0,0.37798 0,0.56697 0,0.18898 0,0.37797 0,0.56696 0,0.88195 0,1.76389 0,2.64583"
       id="path2647"
       inkscape:connector-curvature="0" />
    <path
       style="fill:none;stroke:#000000;stroke-width:0.26458332px;stroke-linecap:butt;stroke-linejoin:miter;stroke-opacity:1"
       d="m 158.75,133.5253 c -0.75595,1.00793 -0.56697,0.44097 -0.56697,1.70089"
       id="path2649"
       inkscape:connector-curvature="0" />
    <path
       style="fill:none;stroke:#000000;stroke-width:0.26458332px;stroke-linecap:butt;stroke-linejoin:miter;stroke-opacity:1"
       d="m 144.76488,131.63541 c -1.88636,8.01704 -0.45297,0.82496 -0.75595,4.15774 -0.24077,2.64848 -0.18899,-0.23882 -0.18899,2.07887"
       id="path2651"
       inkscape:connector-curvature="0" />
    <path
       style="fill:none;stroke:#000000;stroke-width:0.26458332px;stroke-linecap:butt;stroke-linejoin:miter;stroke-opacity:1"
       d="m 129.64583,152.80208 0.37798,8.12649"
       id="path2653"
       inkscape:connector-curvature="0" />
    <path
       style="fill:none;stroke:#000000;stroke-width:0.26458332px;stroke-linecap:butt;stroke-linejoin:miter;stroke-opacity:1"
       d="m 127,178.12649 c 0.44245,0.71002 -0.45081,0.59646 -0.56697,0.94494 -0.0398,0.11952 0.0399,0.25845 0,0.37797 -0.0724,0.21709 -0.45119,0.26221 -0.56696,0.37798 -0.0445,0.0445 0.0445,0.14444 0,0.18899 -0.0445,0.0445 -0.14444,-0.0445 -0.18899,0 -0.0445,0.0445 0,0.12599 0,0.18898 0,0.063 0,0.126 0,0.18899 0,0.18899 0,0.37798 0,0.56697 0,0.94494 0,1.88988 0,2.83482 0,0.37797 0,0.75595 0,1.13393 0,0.063 -0.0445,0.14444 0,0.18898 0.0446,0.0445 0.12599,0 0.18899,0"
       id="path2655"
       inkscape:connector-curvature="0" />
    <path
       style="fill:none;stroke:#000000;stroke-width:0.26458332px;stroke-linecap:butt;stroke-linejoin:miter;stroke-opacity:1"
       d="m 101.67559,103.09821 c -0.31498,0.18899 -0.6581,0.3375 -0.94494,0.56697 -0.0492,0.0393 0,0.12599 0,0.18898 0,0.18899 0,0.37798 0,0.56697 0,0.50397 0,1.00794 0,1.5119 0,0.18899 -0.0845,0.39793 0,0.56697 0.063,0.12599 0.27838,0.0894 0.37798,0.18899 0.0446,0.0445 0,0.12599 0,0.18899 0,0.12599 0,0.25198 0,0.37797 0,0.0988 0.0248,0.70626 0,0.75595 -0.0398,0.0797 -0.13957,0.11486 -0.18899,0.18899 -0.0781,0.11721 -0.11651,0.25719 -0.18899,0.37798 0.0185,0.41796 -0.39224,0.49387 -0.56696,0.75595 -0.0781,0.1172 -0.12599,0.25198 -0.18899,0.37798 -0.125992,0.25198 -0.251984,0.50396 -0.377975,0.75595"
       id="path2657"
       inkscape:connector-curvature="0" />
    <path
       style="fill:none;stroke:#000000;stroke-width:0.26458332px;stroke-linecap:butt;stroke-linejoin:miter;stroke-opacity:1"
       d="m 87.501488,139.00595 c -0.234826,0.9393 -0.188989,0.49621 -0.188989,1.32292 0,0.25198 -0.04143,0.50739 0,0.75595 0.02983,0.17896 0.531281,0.90926 0.566965,0.94494 0.04454,0.0445 0.144441,-0.0445 0.188987,0 0.09961,0.0996 0.10447,0.26528 0.188989,0.37798 0.131736,0.23864 0.406601,0.35315 0.566965,0.56696 0.136279,0.18171 0.217366,0.40636 0.377976,0.56696 0.04454,0.0445 0.130497,-0.0234 0.188986,0 2.077217,0.83089 0.47311,0.001 0.755954,0.56697 0.03984,0.0797 0.149146,0.1093 0.188987,0.18899 0.02817,0.0563 0,0.12599 0,0.18898 0,0.0795 0.02811,1.07772 0,1.13393 -0.03984,0.0797 -0.13957,0.11487 -0.188987,0.18899 -0.115093,0.17264 -0.161319,0.45864 -0.377978,0.56697 -0.05634,0.0282 -0.188987,0.063 -0.188987,0 0,-0.0891 0.125992,-0.126 0.188987,-0.18899"
       id="path2659"
       inkscape:connector-curvature="0" />
    <path
       style="fill:none;stroke:#000000;stroke-width:0.26458332px;stroke-linecap:butt;stroke-linejoin:miter;stroke-opacity:1"
       d="m 93.171131,185.11904 c 0.146793,0.88077 0.384378,0.93534 0,1.51191 -0.04942,0.0741 -0.149146,0.1093 -0.18899,0.18899 -0.02817,0.0563 0,0.12599 0,0.18899 0,0.063 0,0.12599 0,0.18898 0,0.18899 -0.03706,0.38165 0,0.56697 0.03465,0.17324 0.24053,0.76168 0.377976,0.94494 -0.466349,0.57216 0.514062,0.32507 0.566965,0.37797 0.04454,0.0445 0,0.126 0,0.18899 0,0.12415 0.02223,0.71152 0,0.75596 -0.02817,0.0563 -0.144444,-0.0445 -0.188989,0 -0.251984,0.25198 0.400905,0.18134 -0.188987,0.37797 -0.119528,0.0398 -0.288885,-0.0891 -0.377975,0 -0.08909,0.0891 0.03984,0.25845 0,0.37798 -0.02817,0.0845 -0.125992,0.12599 -0.18899,0.18899 -0.06299,0.063 -0.125992,0.25198 -0.188986,0.18898 -0.063,-0.063 0.125992,-0.12599 0.188986,-0.18898"
       id="path2661"
       inkscape:connector-curvature="0" />
  </g>
</svg>
