<?xml version="1.0" encoding="UTF-8" standalone="no"?>
<!-- Created with Inkscape (http://www.inkscape.org/) -->

<svg
   xmlns:dc="http://purl.org/dc/elements/1.1/"
   xmlns:cc="http://creativecommons.org/ns#"
   xmlns:rdf="http://www.w3.org/1999/02/22-rdf-syntax-ns#"
   xmlns:svg="http://www.w3.org/2000/svg"
   xmlns="http://www.w3.org/2000/svg"
   xmlns:sodipodi="http://sodipodi.sourceforge.net/DTD/sodipodi-0.dtd"
   xmlns:inkscape="http://www.inkscape.org/namespaces/inkscape"
   width="210mm"
   height="297mm"
   viewBox="0 0 210 297"
   version="1.1"
   id="svg7357"
   inkscape:version="0.92.2 (5c3e80d, 2017-08-06)"
   sodipodi:docname="plane.svg">
  <defs
     id="defs7351" />
  <sodipodi:namedview
     id="base"
     pagecolor="#ffffff"
     bordercolor="#666666"
     borderopacity="1.0"
     inkscape:pageopacity="0.0"
     inkscape:pageshadow="2"
     inkscape:zoom="1.979899"
     inkscape:cx="251.91471"
     inkscape:cy="541.35844"
     inkscape:document-units="mm"
     inkscape:current-layer="layer1"
     showgrid="false"
     inkscape:window-width="1503"
     inkscape:window-height="1251"
     inkscape:window-x="2391"
     inkscape:window-y="-9"
     inkscape:window-maximized="1" />
  <metadata
     id="metadata7354">
    <rdf:RDF>
      <cc:Work
         rdf:about="">
        <dc:format>image/svg+xml</dc:format>
        <dc:type
           rdf:resource="http://purl.org/dc/dcmitype/StillImage" />
        <dc:title></dc:title>
      </cc:Work>
    </rdf:RDF>
  </metadata>
  <g
     inkscape:label="Layer 1"
     inkscape:groupmode="layer"
     id="layer1"
     style="display:inline">
    <path
       style="fill:none;stroke:#000000;stroke-width:0.26458332px;stroke-linecap:butt;stroke-linejoin:miter;stroke-opacity:1"
       d="m 79.84677,182.24114 c 0,0 1.904296,-2.3052 2.338609,-3.62484 0.434314,-1.31964 0.952148,-2.3219 1.069078,-3.40768 0.11693,-1.08579 0.300678,-9.80546 0.300678,-9.80546 0,0 0.968851,-0.23386 1.035669,-1.30294 0.06682,-1.06907 -0.03341,-2.20497 -0.03341,-2.20497 h 5.545844 c 0,0 0.100224,1.93771 0.167042,2.63929 0.06682,0.70158 0.701583,2.77292 1.00226,2.80633 0.300681,0.0334 0.400905,-0.26727 1.002263,-1.63703 0.601356,-1.36976 0.46772,-3.70836 0.46772,-3.70836 l 3.10701,0.0334 2.037929,-0.0334 c 0,0 2.071339,0 2.204978,0.0668 0.13363,0.0668 -0.0668,5.31198 0.83522,5.14493 0.90203,-0.16704 1.20271,-5.0113 1.26952,-5.4122 0.0668,-0.40091 14.29892,-0.43432 14.29892,-0.43432 0,0 2.60588,-4.94448 -0.36749,-5.27857 -2.97338,-0.33409 -23.887216,-3.10701 -23.887216,-3.10701 l -7.416731,-0.16704 -1.202711,-1.5368 -0.03341,-12.86235 11.225321,-1.97111 -0.03341,-2.87315 -12.895754,-1.73725 -2.104748,-1.5368"
       id="path7370"
       inkscape:connector-curvature="0"
       inkscape:export-xdpi="248.037"
       inkscape:export-ydpi="248.037"
       inkscape:export-filename="C:\Users\Eric\Documents\Foreign Aid Fighter\Assets\Models\cargoclane.png" />
    <path
       style="fill:none;stroke:#000000;stroke-width:0.26458332px;stroke-linecap:butt;stroke-linejoin:miter;stroke-opacity:1"
       d="m 79.713161,182.24114 c 0,0 -1.9043,-2.3052 -2.33861,-3.62484 -0.43432,-1.31964 -0.95215,-2.3219 -1.06908,-3.40768 -0.11693,-1.08579 -0.30068,-9.80546 -0.30068,-9.80546 0,0 -0.96885,-0.23386 -1.03567,-1.30294 -0.0668,-1.06907 0.0334,-2.20497 0.0334,-2.20497 h -5.54584 c 0,0 -0.10022,1.93771 -0.16704,2.63929 -0.0668,0.70158 -0.70159,2.77292 -1.00226,2.80633 -0.30068,0.0334 -0.40091,-0.26727 -1.00227,-1.63703 -0.60135,-1.36976 -0.46772,-3.70836 -0.46772,-3.70836 l -3.107005,0.0334 -2.037929,-0.0334 c 0,0 -2.071339,0 -2.204978,0.0668 -0.13363,0.0668 0.0668,5.31197 -0.83522,5.14492 -0.90203,-0.16703 -1.202715,-5.0113 -1.269525,-5.4122 -0.0668,-0.40091 -14.29892,-0.43431 -14.29892,-0.43431 0,0 -2.60588,-4.94449 0.36749,-5.27858 2.97338,-0.33409 23.887217,-3.10701 23.887217,-3.10701 l 7.41673,-0.16703 1.20272,-1.5368 0.0334,-12.86235 -11.22533,-1.97111 0.0334,-2.87315 12.89576,-1.73725 2.10475,-1.5368"
       id="path7370-6"
       inkscape:connector-curvature="0"
       inkscape:export-xdpi="248.037"
       inkscape:export-ydpi="248.037"
       inkscape:export-filename="C:\Users\Eric\Documents\Foreign Aid Fighter\Assets\Models\cargoclane.png" />
    <ellipse
       style="fill:#afe9dd;fill-opacity:1;stroke-width:0.08176736"
       id="path7389"
       cx="79.847473"
       cy="173.68526"
       rx="2.2678571"
       ry="3.4962788"
       inkscape:export-xdpi="248.037"
       inkscape:export-ydpi="248.037"
       inkscape:export-filename="C:\Users\Eric\Documents\Foreign Aid Fighter\Assets\Models\cargoclane.png" />
    <path
       style="fill:#c4c8b7;fill-opacity:1;stroke-width:0.35714287"
       d="m 299.27981,685.10545 c -1.21242,-1.61651 -2.92179,-4.10738 -3.7986,-5.53527 -1.49063,-2.42749 -4.73826,-10.51238 -5.84327,-14.5467 -0.61029,-2.2281 -1.07102,-11.30158 -1.40211,-27.61247 l -0.25593,-12.60844 -1.36549,-0.69663 c -2.25935,-1.15263 -2.61932,-2.25328 -2.59079,-7.92175 l 0.0247,-4.91071 h -11.0074 -11.00741 l -0.16579,0.80357 c -0.0912,0.44196 -0.26894,2.88162 -0.39501,5.42145 -0.12606,2.53983 -0.52574,5.77733 -0.88818,7.19444 -0.82164,3.21259 -2.18844,6.6651 -2.70509,6.833 -0.5556,0.18056 -3.33586,-6.06047 -3.93088,-8.82389 -0.27492,-1.27679 -0.60506,-4.29018 -0.73365,-6.69643 l -0.2338,-4.375 -13.96275,0.005 c -7.98437,0.003 -14.18764,0.14771 -14.48801,0.33767 -0.41344,0.26147 -0.58196,1.70931 -0.79149,6.80028 -0.33401,8.11524 -1.06615,12.49945 -2.08734,12.49945 -1.13008,0 -2.77279,-6.75105 -3.73166,-15.33595 -0.29487,-2.64013 -0.66506,-4.92916 -0.82264,-5.08674 -0.58262,-0.58262 -9.67867,-1.0226 -28.11303,-1.35986 -10.41071,-0.19046 -20.48801,-0.34945 -22.394,-0.3533 l -3.46543,-0.007 -0.75719,-1.69643 c -2.66051,-5.9607 -3.58627,-12.03365 -2.17475,-14.26631 1.20742,-1.90981 2.18317,-2.29306 7.63613,-2.99925 2.7961,-0.36212 12.63739,-1.63466 21.86953,-2.82787 9.23214,-1.19322 27.63393,-3.59799 40.89286,-5.34394 l 24.10714,-3.17445 12.32143,-0.21576 c 17.18498,-0.30093 15.44229,0.0451 18.3233,-3.63859 l 2.39098,-3.05715 -6e-4,-24.6937 -6e-4,-24.69369 -21.16011,-3.69864 c -11.63807,-2.03426 -21.18845,-3.72331 -21.22309,-3.75345 -0.0346,-0.0301 0.0281,-2.22594 0.13932,-4.87954 l 0.20229,-4.82473 23.61068,-3.14067 c 12.98588,-1.72736 23.98788,-3.29495 24.44891,-3.48352 0.46102,-0.18857 2.34986,-1.4642 4.1974,-2.83473 1.84755,-1.37053 3.45328,-2.49187 3.5683,-2.49187 0.11501,0 1.8899,1.2249 3.9442,2.72199 l 3.73507,2.72198 24.17983,3.26365 24.17983,3.26366 0.0992,4.87329 0.0991,4.87329 -2.42057,0.41059 c -1.33132,0.22583 -10.85807,1.89134 -21.17057,3.70113 l -18.75,3.29054 -0.084,24.63637 -0.084,24.63637 2.40547,3.09758 2.40547,3.09758 2.14286,0.19505 c 1.17857,0.10727 7.52679,0.28813 14.10714,0.40191 l 11.96429,0.20687 24.28571,3.1874 c 13.35715,1.75307 33.04465,4.31595 43.75,5.69528 10.70536,1.37934 20.54518,2.65561 21.86628,2.83615 2.7261,0.37256 4.24745,1.26701 4.92105,2.89323 1.03984,2.51039 -0.26188,9.83621 -2.5536,14.37109 l -0.67682,1.33929 -3.47488,0.007 c -1.91119,0.004 -11.91238,0.16211 -22.22488,0.35165 -19.73552,0.36275 -27.37022,0.77575 -28.08581,1.51932 -0.23471,0.24388 -0.68498,2.69343 -1.0006,5.44343 -0.96858,8.4392 -2.59112,14.82142 -3.76802,14.82142 -0.97431,0 -2.11734,-8.34192 -2.13747,-15.59949 -0.006,-2.17097 -0.1522,-3.06501 -0.56933,-3.48214 -0.49116,-0.49116 -2.3129,-0.56123 -14.59154,-0.56123 h -14.0304 l -0.20393,4.55357 c -0.11216,2.50447 -0.39277,5.4375 -0.62357,6.51786 -0.58295,2.7287 -3.2784,8.75 -3.91696,8.75 -0.28914,0 -0.8101,-0.78198 -1.18966,-1.78572 -1.6231,-4.29217 -2.07416,-6.55556 -2.47324,-12.41071 l -0.40774,-5.98214 -11.0902,-1e-4 -11.0902,-10e-5 v 5.1512 c 0,5.72214 -0.26823,6.52128 -2.57961,7.68535 l -1.105,0.5565 -0.20598,3.92858 c -0.1133,2.16071 -0.30077,8.50892 -0.41661,14.10714 -0.11584,5.59821 -0.33991,12.60831 -0.49793,15.57799 -0.27817,5.22764 -0.34674,5.57418 -2.15537,10.89285 -2.228,6.55191 -4.08851,10.21632 -7.71055,15.18645 -1.48298,2.03492 -2.72616,3.69656 -2.76263,3.69254 -0.0365,-0.004 -1.0583,-1.32991 -2.27071,-2.94643 z m 4.28133,-15.69363 c 6.19122,-1.85494 8.89094,-13.22713 4.98112,-20.98229 -4.24226,-8.41454 -12.54779,-6.38917 -14.91144,3.63628 -1.71667,7.28126 1.19539,15.50181 6.11223,17.25441 1.73315,0.61779 2.03746,0.62509 3.81809,0.0916 z"
       id="path7393"
       inkscape:connector-curvature="0"
       transform="scale(0.26458333)"
       inkscape:export-xdpi="248.037"
       inkscape:export-ydpi="248.037"
       inkscape:export-filename="C:\Users\Eric\Documents\Foreign Aid Fighter\Assets\Models\cargoclane.png" />
    <path
       style="fill:none;stroke:#000000;stroke-width:0.26458332px;stroke-linecap:butt;stroke-linejoin:miter;stroke-opacity:1"
       d="m 105.10374,154.74579 v 1.5368 l 10.49033,1.20272 -0.16705,-1.46998"
       id="path7397"
       inkscape:connector-curvature="0"
       sodipodi:nodetypes="cccc"
       inkscape:export-xdpi="248.037"
       inkscape:export-ydpi="248.037"
       inkscape:export-filename="C:\Users\Eric\Documents\Foreign Aid Fighter\Assets\Models\cargoclane.png" />
    <path
       style="fill:none;stroke:#000000;stroke-width:0.26458332px;stroke-linecap:butt;stroke-linejoin:miter;stroke-opacity:1"
       d="m 115.59407,157.48531 v 3.8587"
       id="path7399"
       inkscape:connector-curvature="0"
       inkscape:export-xdpi="248.037"
       inkscape:export-ydpi="248.037"
       inkscape:export-filename="C:\Users\Eric\Documents\Foreign Aid Fighter\Assets\Models\cargoclane.png" />
    <path
       style="fill:none;stroke:#000000;stroke-width:0.26458332px;stroke-linecap:butt;stroke-linejoin:miter;stroke-opacity:1"
       d="m 54.612478,154.76247 v 1.5368 l -10.49033,1.20272 0.16705,-1.46998"
       id="path7397-3"
       inkscape:connector-curvature="0"
       sodipodi:nodetypes="cccc"
       inkscape:export-xdpi="248.037"
       inkscape:export-ydpi="248.037"
       inkscape:export-filename="C:\Users\Eric\Documents\Foreign Aid Fighter\Assets\Models\cargoclane.png" />
    <path
       style="fill:none;stroke:#000000;stroke-width:0.26458332px;stroke-linecap:butt;stroke-linejoin:miter;stroke-opacity:1"
       d="m 44.122148,157.50199 v 3.8587"
       id="path7399-1"
       inkscape:connector-curvature="0"
       inkscape:export-xdpi="248.037"
       inkscape:export-ydpi="248.037"
       inkscape:export-filename="C:\Users\Eric\Documents\Foreign Aid Fighter\Assets\Models\cargoclane.png" />
  </g>
</svg>
